<?xml version="1.0" encoding="UTF-8" standalone="no"?>
<svg width="200px" height="200px" viewBox="0 0 200 200" version="1.1" xmlns="http://www.w3.org/2000/svg" xmlns:xlink="http://www.w3.org/1999/xlink" xmlns:sketch="http://www.bohemiancoding.com/sketch/ns">
    <!-- Generator: Sketch 3.3.2 (12043) - http://www.bohemiancoding.com/sketch -->
    <title>add-seat</title>
    <desc>Created with Sketch.</desc>
    <defs></defs>
    <g id="Page-1" stroke="none" stroke-width="1" fill="none" fill-rule="evenodd" sketch:type="MSPage">
        <g id="add-seat" sketch:type="MSArtboardGroup" fill="#000000">
            <path d="M130.035146,70.0087944 L146.035146,70.0087944 L146.035146,43.0087944 L173.035146,43.0087944 L173.035146,27.0087944 L146.035146,27.0087944 L146.035146,0.00879441785 L130.035146,0.00879441785 L130.035146,27.0087944 L103.035146,27.0087944 L103.035146,43.0087944 L130.035146,43.0087944 L130.035146,70.0087944 Z M49.0351457,40.0087944 C37.8207304,40.3339324 28.3765535,31.6531543 28.0351457,21.0087944 C27.7099531,9.57391386 36.6133982,0.352578154 48.0351457,0.00879441785 C59.2455891,-0.315403738 68.6917799,8.36636984 69.0351457,19.0087944 C69.3593872,30.4436193 60.4539282,39.6659505 49.0351457,40.0087944 Z M27.0351457,56.0087944 C26.8107491,53.8258084 27.6824027,51.1583913 29.0351457,49.0087944 C31.2799732,47.1602695 33.8409555,46.0087944 36.0351457,46.0087944 L62.0351457,46.0087944 C66.2320842,46.0087944 69.7057039,49.1678413 70.0351457,53.0087944 L76.0351457,120.008794 L114.035146,120.008794 C118.357371,119.871416 122.0599,121.408385 125.035146,124.008794 C127.512733,126.878392 129.041126,130.590147 129.035146,134.008794 L129.035146,188.008794 C128.944164,194.16559 124.0731,199.008794 118.035146,199.008794 C112.040881,199.008794 107.175814,194.115526 107.035146,188.008794 L107.035146,145.008794 C107.249785,144.099453 106.896925,143.24636 106.035146,143.008794 C105.644423,141.987748 104.792761,141.635296 104.035146,142.008794 L46.0351457,142.008794 C39.5756767,141.635296 35.3373609,137.04041 35.0351457,131.008794 C34.6596302,130.321803 29.4037187,79.0901732 27.0351457,56.0087944 Z" sketch:type="MSShapeGroup"></path>
        </g>
    </g>
</svg>