<?xml version="1.0" ?><!DOCTYPE svg  PUBLIC '-//W3C//DTD SVG 1.1//EN'  'http://www.w3.org/Graphics/SVG/1.1/DTD/svg11.dtd'><svg enable-background="new 0 0 64 64" height="64px" id="Layer_1" version="1.1" viewBox="0 0 64 64" width="64px" xml:space="preserve" xmlns="http://www.w3.org/2000/svg" xmlns:xlink="http://www.w3.org/1999/xlink"><g><path d="M55.087,46.521h-7.745c-3.185,0-3.746-2.287-3.825-3.434V35.52c0-3.182-2.688-3.454-3.469-3.466h-1.773   V32.05H32.54c-3.208,0-3.477-2.739-3.492-3.455V21.27c0-3.125-2.262-3.624-3.32-3.687h-1.819h-5.729   c-3.604,0-3.603-3.327-3.603-3.327V6.15c-0.063-0.965-0.564-3.038-3.716-3.038H3.348c-2.907,0-3.222,2.117-3.243,2.89v51.304   c0,0-0.167,3.58,3.714,3.58h50.23c3.144,0,3.815-1.77,3.937-2.848v-7.635C57.986,47.328,56.203,46.648,55.087,46.521z" fill="#241F20"/><path d="M63.815,28.436c-0.027-2.85-1.667-1.636-1.667-1.636l-1.607,1.636l-0.188,0.187l-0.374,0.385   c-1.022,1.04-2.11,0.146-2.43-0.167l-0.104-0.102L37.173,8.487c-1.106-1.101-1.9-0.769-2.295-0.451l-0.287,0.286v0.002   l-0.472,0.471c0,0-1.222,1.167,0.302,2.692l20.44,20.413c0.056,0.058,1.138,1.154-0.011,2.319c0,0.003,0,0.003-0.004,0.003   l-0.54,0.551l-1.424,1.449c0,0-1.265,1.576,1.663,1.639l0,0l7.568,0.16c0,0,0.021,0,0.024,0h0.069   c0.367,0.002,1.697-0.105,1.684-1.809c0-0.004,0-0.004,0.004-0.008L63.815,28.436z" fill="#241F20"/></g></svg>